# xmcd CD Database Entry
#
# Track frame offsets:
# 182
# 37452
# 60142
# 77657
# 94330
# 113425
# 128807
#
# Disc length: 2140 seconds
#
# Revision: 2
# Processed by: cddbd v1.4b41PL1 Copyright (c) Steve Scherf et al.
# Submitted via: tcd 2.0b
#
DISCID=52085a07
DTITLE=The Jon Spencer Blues Explosion - Experimental Remixes
DYEAR=1900
DGENRE=
TTITLE0=Bellbottoms
TTITLE1=Flavor Part 1
TTITLE2=Flavor Part 2
TTITLE3=Soul Typecast
TTITLE4=Greyhound Part 1
TTITLE5=Greyhound Part 2
TTITLE6=(bonus track)
EXTD=
EXTT0=
EXTT1=
EXTT2=
EXTT3=
EXTT4=
EXTT5=
EXTT6=
PLAYORDER=
